<mxfile host="app.diagrams.net" agent="Mozilla/5.0 (Windows NT 10.0; Win64; x64) AppleWebKit/537.36 (KHTML, like Gecko) Chrome/135.0.0.0 Safari/537.36" version="26.2.14" pages="2">
  <diagram name="Página-1" id="6zcupiF9nMeDCfpoUlGH">
    <mxGraphModel dx="1042" dy="527" grid="1" gridSize="10" guides="1" tooltips="1" connect="1" arrows="1" fold="1" page="1" pageScale="1" pageWidth="827" pageHeight="1169" math="0" shadow="0">
      <root>
        <mxCell id="0" />
        <mxCell id="1" parent="0" />
        <mxCell id="oGPXxR4P-A5ZRevXL85a-1" value="API Proposal/&lt;div&gt;Confirmations&lt;/div&gt;" style="rounded=1;whiteSpace=wrap;html=1;" vertex="1" parent="1">
          <mxGeometry x="110" y="260" width="120" height="60" as="geometry" />
        </mxCell>
        <mxCell id="oGPXxR4P-A5ZRevXL85a-7" style="edgeStyle=orthogonalEdgeStyle;rounded=0;orthogonalLoop=1;jettySize=auto;html=1;entryX=0.5;entryY=0;entryDx=0;entryDy=0;" edge="1" parent="1" source="oGPXxR4P-A5ZRevXL85a-2" target="oGPXxR4P-A5ZRevXL85a-1">
          <mxGeometry relative="1" as="geometry" />
        </mxCell>
        <mxCell id="oGPXxR4P-A5ZRevXL85a-11" value="Contrato 1" style="edgeLabel;html=1;align=center;verticalAlign=middle;resizable=0;points=[];" vertex="1" connectable="0" parent="oGPXxR4P-A5ZRevXL85a-7">
          <mxGeometry x="-0.0708" relative="1" as="geometry">
            <mxPoint as="offset" />
          </mxGeometry>
        </mxCell>
        <mxCell id="oGPXxR4P-A5ZRevXL85a-2" value="Pedido base 1 a 7" style="rounded=1;whiteSpace=wrap;html=1;" vertex="1" parent="1">
          <mxGeometry x="40" y="140" width="120" height="60" as="geometry" />
        </mxCell>
        <mxCell id="oGPXxR4P-A5ZRevXL85a-8" style="edgeStyle=orthogonalEdgeStyle;rounded=0;orthogonalLoop=1;jettySize=auto;html=1;entryX=0.5;entryY=0;entryDx=0;entryDy=0;" edge="1" parent="1" source="oGPXxR4P-A5ZRevXL85a-3" target="oGPXxR4P-A5ZRevXL85a-1">
          <mxGeometry relative="1" as="geometry" />
        </mxCell>
        <mxCell id="oGPXxR4P-A5ZRevXL85a-12" value="Contrato 2" style="edgeLabel;html=1;align=center;verticalAlign=middle;resizable=0;points=[];" vertex="1" connectable="0" parent="oGPXxR4P-A5ZRevXL85a-8">
          <mxGeometry x="-0.0985" y="1" relative="1" as="geometry">
            <mxPoint as="offset" />
          </mxGeometry>
        </mxCell>
        <mxCell id="oGPXxR4P-A5ZRevXL85a-3" value="Pedido base 8" style="rounded=1;whiteSpace=wrap;html=1;" vertex="1" parent="1">
          <mxGeometry x="180" y="140" width="120" height="60" as="geometry" />
        </mxCell>
        <mxCell id="oGPXxR4P-A5ZRevXL85a-5" style="edgeStyle=orthogonalEdgeStyle;rounded=0;orthogonalLoop=1;jettySize=auto;html=1;" edge="1" parent="1" source="oGPXxR4P-A5ZRevXL85a-4">
          <mxGeometry relative="1" as="geometry">
            <mxPoint x="170" y="110" as="targetPoint" />
          </mxGeometry>
        </mxCell>
        <mxCell id="oGPXxR4P-A5ZRevXL85a-6" value="&amp;nbsp;Cenário 1&amp;nbsp;" style="edgeLabel;html=1;align=center;verticalAlign=middle;resizable=0;points=[];" vertex="1" connectable="0" parent="oGPXxR4P-A5ZRevXL85a-5">
          <mxGeometry x="-0.3353" relative="1" as="geometry">
            <mxPoint as="offset" />
          </mxGeometry>
        </mxCell>
        <mxCell id="oGPXxR4P-A5ZRevXL85a-16" style="edgeStyle=orthogonalEdgeStyle;rounded=0;orthogonalLoop=1;jettySize=auto;html=1;" edge="1" parent="1" source="oGPXxR4P-A5ZRevXL85a-4">
          <mxGeometry relative="1" as="geometry">
            <mxPoint x="600" y="120" as="targetPoint" />
          </mxGeometry>
        </mxCell>
        <mxCell id="oGPXxR4P-A5ZRevXL85a-17" value="&amp;nbsp;Cenário 2&amp;nbsp;" style="edgeLabel;html=1;align=center;verticalAlign=middle;resizable=0;points=[];" vertex="1" connectable="0" parent="oGPXxR4P-A5ZRevXL85a-16">
          <mxGeometry x="-0.1271" y="-1" relative="1" as="geometry">
            <mxPoint as="offset" />
          </mxGeometry>
        </mxCell>
        <mxCell id="oGPXxR4P-A5ZRevXL85a-4" value="Solar/OM" style="rounded=1;whiteSpace=wrap;html=1;" vertex="1" parent="1">
          <mxGeometry x="354" y="30" width="120" height="60" as="geometry" />
        </mxCell>
        <mxCell id="oGPXxR4P-A5ZRevXL85a-13" style="edgeStyle=orthogonalEdgeStyle;rounded=0;orthogonalLoop=1;jettySize=auto;html=1;entryX=0.5;entryY=0;entryDx=0;entryDy=0;" edge="1" parent="1" source="oGPXxR4P-A5ZRevXL85a-9" target="oGPXxR4P-A5ZRevXL85a-10">
          <mxGeometry relative="1" as="geometry" />
        </mxCell>
        <mxCell id="oGPXxR4P-A5ZRevXL85a-9" value="Pedido base 1 a 8" style="rounded=1;whiteSpace=wrap;html=1;" vertex="1" parent="1">
          <mxGeometry x="540" y="140" width="120" height="60" as="geometry" />
        </mxCell>
        <mxCell id="oGPXxR4P-A5ZRevXL85a-10" value="API Proposal/&lt;div&gt;Confirmations&lt;/div&gt;" style="rounded=1;whiteSpace=wrap;html=1;" vertex="1" parent="1">
          <mxGeometry x="540" y="260" width="120" height="60" as="geometry" />
        </mxCell>
        <mxCell id="oGPXxR4P-A5ZRevXL85a-19" value="API faz a criação dos 2 contrato na base considerando 1 payload" style="text;html=1;align=center;verticalAlign=middle;whiteSpace=wrap;rounded=0;" vertex="1" parent="1">
          <mxGeometry x="540" y="340" width="120" height="70" as="geometry" />
        </mxCell>
        <mxCell id="oGPXxR4P-A5ZRevXL85a-20" value="API faz a criação dos 2 contrato na base considerando 2 payloads distintos" style="text;html=1;align=center;verticalAlign=middle;whiteSpace=wrap;rounded=0;" vertex="1" parent="1">
          <mxGeometry x="110" y="340" width="120" height="70" as="geometry" />
        </mxCell>
      </root>
    </mxGraphModel>
  </diagram>
  <diagram name="v2" id="oumpoS57ulSifsLbxblP">
    <mxGraphModel dx="1042" dy="527" grid="1" gridSize="10" guides="1" tooltips="1" connect="1" arrows="1" fold="1" page="1" pageScale="1" pageWidth="827" pageHeight="1169" math="0" shadow="0">
      <root>
        <mxCell id="6t1jF0Egzl_7hEUgBs3J-0" />
        <mxCell id="6t1jF0Egzl_7hEUgBs3J-1" parent="6t1jF0Egzl_7hEUgBs3J-0" />
        <mxCell id="93l5qbgPySszROAkBqZN-0" value="NETSales" style="rounded=1;whiteSpace=wrap;html=1;" vertex="1" parent="6t1jF0Egzl_7hEUgBs3J-1">
          <mxGeometry x="394" y="200" width="120" height="60" as="geometry" />
        </mxCell>
        <mxCell id="93l5qbgPySszROAkBqZN-1" value="Venda Single Claro Box" style="rounded=1;whiteSpace=wrap;html=1;" vertex="1" parent="6t1jF0Egzl_7hEUgBs3J-1">
          <mxGeometry x="90" y="280" width="120" height="60" as="geometry" />
        </mxCell>
        <mxCell id="93l5qbgPySszROAkBqZN-2" value="Venda Rede cabeada (BL/TV) + Claro Box Streaming" style="rounded=1;whiteSpace=wrap;html=1;" vertex="1" parent="6t1jF0Egzl_7hEUgBs3J-1">
          <mxGeometry x="274" y="280" width="120" height="60" as="geometry" />
        </mxCell>
        <mxCell id="93l5qbgPySszROAkBqZN-3" value="Venda Bundle TV Streaming + Móvel" style="rounded=1;whiteSpace=wrap;html=1;" vertex="1" parent="6t1jF0Egzl_7hEUgBs3J-1">
          <mxGeometry x="440" y="280" width="120" height="60" as="geometry" />
        </mxCell>
        <mxCell id="93l5qbgPySszROAkBqZN-4" value="Loja Própria" style="rounded=1;whiteSpace=wrap;html=1;" vertex="1" parent="6t1jF0Egzl_7hEUgBs3J-1">
          <mxGeometry x="240" y="120" width="120" height="60" as="geometry" />
        </mxCell>
        <mxCell id="93l5qbgPySszROAkBqZN-5" value="Agente Autorizado" style="rounded=1;whiteSpace=wrap;html=1;" vertex="1" parent="6t1jF0Egzl_7hEUgBs3J-1">
          <mxGeometry x="450" y="120" width="120" height="60" as="geometry" />
        </mxCell>
        <mxCell id="93l5qbgPySszROAkBqZN-8" style="edgeStyle=orthogonalEdgeStyle;rounded=0;orthogonalLoop=1;jettySize=auto;html=1;entryX=0.5;entryY=0;entryDx=0;entryDy=0;" edge="1" parent="6t1jF0Egzl_7hEUgBs3J-1" source="93l5qbgPySszROAkBqZN-6" target="93l5qbgPySszROAkBqZN-4">
          <mxGeometry relative="1" as="geometry" />
        </mxCell>
        <mxCell id="93l5qbgPySszROAkBqZN-6" value="Estoque 7 bases" style="rounded=1;whiteSpace=wrap;html=1;" vertex="1" parent="6t1jF0Egzl_7hEUgBs3J-1">
          <mxGeometry x="240" y="10" width="120" height="60" as="geometry" />
        </mxCell>
        <mxCell id="93l5qbgPySszROAkBqZN-9" style="edgeStyle=orthogonalEdgeStyle;rounded=0;orthogonalLoop=1;jettySize=auto;html=1;entryX=0.5;entryY=0;entryDx=0;entryDy=0;" edge="1" parent="6t1jF0Egzl_7hEUgBs3J-1" source="93l5qbgPySszROAkBqZN-7" target="93l5qbgPySszROAkBqZN-5">
          <mxGeometry relative="1" as="geometry" />
        </mxCell>
        <mxCell id="93l5qbgPySszROAkBqZN-7" value="Estoque 8a base" style="rounded=1;whiteSpace=wrap;html=1;" vertex="1" parent="6t1jF0Egzl_7hEUgBs3J-1">
          <mxGeometry x="450" y="10" width="120" height="60" as="geometry" />
        </mxCell>
        <mxCell id="93l5qbgPySszROAkBqZN-10" style="edgeStyle=orthogonalEdgeStyle;rounded=0;orthogonalLoop=1;jettySize=auto;html=1;entryX=0.857;entryY=-0.02;entryDx=0;entryDy=0;entryPerimeter=0;exitX=0;exitY=0.5;exitDx=0;exitDy=0;strokeColor=#FFB570;dashed=1;" edge="1" parent="6t1jF0Egzl_7hEUgBs3J-1" source="93l5qbgPySszROAkBqZN-7" target="93l5qbgPySszROAkBqZN-4">
          <mxGeometry relative="1" as="geometry">
            <Array as="points">
              <mxPoint x="420" y="40" />
              <mxPoint x="420" y="100" />
              <mxPoint x="343" y="100" />
            </Array>
          </mxGeometry>
        </mxCell>
        <mxCell id="93l5qbgPySszROAkBqZN-11" style="edgeStyle=orthogonalEdgeStyle;rounded=0;orthogonalLoop=1;jettySize=auto;html=1;entryX=0.147;entryY=-0.007;entryDx=0;entryDy=0;entryPerimeter=0;strokeColor=#3333FF;dashed=1;" edge="1" parent="6t1jF0Egzl_7hEUgBs3J-1" source="93l5qbgPySszROAkBqZN-6" target="93l5qbgPySszROAkBqZN-5">
          <mxGeometry relative="1" as="geometry">
            <Array as="points">
              <mxPoint x="380" y="40" />
              <mxPoint x="380" y="90" />
              <mxPoint x="468" y="90" />
            </Array>
          </mxGeometry>
        </mxCell>
      </root>
    </mxGraphModel>
  </diagram>
</mxfile>
